<svg aria-hidden="true" style="position: absolute; width: 0; height: 0; overflow: hidden;" version="1.1"
  xmlns="http://www.w3.org/2000/svg" xmlns:xlink="http://www.w3.org/1999/xlink">
  <defs>
    <symbol id="icon-arrow-circle-right" viewBox="0 0 32 32">
      <path stroke-linejoin="round" stroke-linecap="round" stroke-miterlimit="4" stroke-width="2.6"
        d="M4.451 9.333c2.305-3.985 6.614-6.667 11.55-6.667 7.364 0 13.333 5.97 13.333 13.333s-5.97 13.333-13.333 13.333c-4.935 0-9.244-2.681-11.55-6.667">
      </path>
      <path stroke-linejoin="round" stroke-linecap="round" stroke-miterlimit="4" stroke-width="2.6"
        d="M16 21.333l5.333-5.333-5.333-5.333"></path>
      <path stroke-linejoin="round" stroke-linecap="round" stroke-miterlimit="4" stroke-width="2.6"
        d="M2.667 16h18.667"></path>
    </symbol>
    <symbol id="icon-arrow-down" viewBox="0 0 32 32">
      <path stroke-linejoin="round" stroke-linecap="round" stroke-miterlimit="4" stroke-width="3.5556"
        d="M8 12l8 8 8-8"></path>
    </symbol>
    <symbol id="icon-arrow-left" viewBox="0 0 32 32">
      <path
        d="M4.123 17.356l-1.529-1.039 29.072-0.001v-0.813l-28.89 0.001 1.44-0.828-0.405-0.705-3.314 1.904 3.168 2.154 0.458-0.673z">
      </path>
    </symbol>
    <symbol id="icon-arrow-right" viewBox="0 0 32 32">
      <path
        d="M27.877 14.462l1.529 1.039-29.072 0.001v0.813l28.89-0.001-1.44 0.828 0.405 0.705 3.314-1.904-3.168-2.154-0.458 0.673z">
      </path>
    </symbol>
    <symbol id="icon-basket" viewBox="0 0 32 32">
      <path stroke-linejoin="round" stroke-linecap="round" stroke-miterlimit="4" stroke-width="2.6" d="M12 4h8"></path>
      <path stroke-linejoin="round" stroke-linecap="round" stroke-miterlimit="4" stroke-width="2.6" d="M4 8h24"></path>
      <path stroke-linejoin="round" stroke-linecap="round" stroke-miterlimit="4" stroke-width="2.6"
        d="M6.667 8l0.801 12.018c0.149 2.231 0.223 3.347 0.588 4.243 0.662 1.627 2.004 2.883 3.672 3.435 0.919 0.304 2.037 0.304 4.273 0.304v0c2.236 0 3.354 0 4.273-0.304 1.668-0.552 3.009-1.808 3.671-3.435 0.365-0.896 0.439-2.012 0.588-4.243l0.801-12.018">
      </path>
    </symbol>
    <symbol id="icon-calendar-check-02" viewBox="0 0 32 32">
      <path stroke-linejoin="round" stroke-linecap="round" stroke-miterlimit="4" stroke-width="2.6667"
        d="M28 13.333h-24M28 16.667v-4.933c0-2.24 0-3.36-0.436-4.216-0.383-0.753-0.995-1.365-1.748-1.748-0.856-0.436-1.976-0.436-4.216-0.436h-11.2c-2.24 0-3.36 0-4.216 0.436-0.753 0.383-1.365 0.995-1.748 1.748-0.436 0.856-0.436 1.976-0.436 4.216v11.2c0 2.24 0 3.36 0.436 4.216 0.383 0.753 0.995 1.365 1.748 1.748 0.856 0.436 1.976 0.436 4.216 0.436h5.6M21.333 2.667v5.333M10.667 2.667v5.333M19.333 25.333l2.667 2.667 6-6">
      </path>
    </symbol>
    <symbol id="icon-Log-in" viewBox="0 0 32 32">
      <path stroke-linejoin="round" stroke-linecap="round" stroke-miterlimit="4" stroke-width="3.2"
        d="M20.8 1.6h1.92c2.688 0 4.032 0 5.059 0.523 0.903 0.46 1.637 1.194 2.098 2.098 0.523 1.027 0.523 2.371 0.523 5.059v13.44c0 2.688 0 4.032-0.523 5.059-0.46 0.903-1.195 1.637-2.098 2.098-1.027 0.523-2.371 0.523-5.059 0.523h-1.92M12.8 8l8 8M20.8 16l-8 8M20.8 16h-19.2">
      </path>
    </symbol>
    <symbol id="icon-log-out" viewBox="0 0 32 32">
      <path stroke-linejoin="round" stroke-linecap="round" stroke-miterlimit="4" stroke-width="3.5556"
        d="M21.926 23.407l7.407-7.407M29.333 16l-7.407-7.407M29.333 16h-17.778M11.556 2.667h-1.778c-2.489 0-3.734 0-4.684 0.484-0.836 0.426-1.516 1.106-1.942 1.942-0.484 0.951-0.484 2.195-0.484 4.684v12.444c0 2.489 0 3.734 0.484 4.684 0.426 0.836 1.106 1.516 1.942 1.942 0.951 0.484 2.195 0.484 4.684 0.484h1.778">
      </path>
    </symbol>
    <symbol id="icon-moon" viewBox="0 0 32 32">
      <path
        d="M29.222 18.244c-1.071 0.284-2.174 0.428-3.282 0.428-3.374 0-6.542-1.312-8.922-3.691-1.563-1.572-2.686-3.526-3.259-5.667s-0.573-4.395-0.003-6.537c0.071-0.268 0.071-0.55-0.001-0.817s-0.213-0.512-0.409-0.707c-0.196-0.196-0.44-0.337-0.708-0.408s-0.55-0.072-0.817 0c-2.681 0.715-5.128 2.122-7.094 4.080-6.16 6.16-6.16 16.186 0 22.349 1.464 1.472 3.206 2.64 5.124 3.434s3.975 1.201 6.052 1.196c2.076 0.006 4.132-0.4 6.050-1.195s3.659-1.962 5.122-3.434c1.96-1.966 3.368-4.414 4.082-7.097 0.071-0.268 0.070-0.549-0.002-0.817s-0.213-0.511-0.409-0.707c-0.196-0.196-0.44-0.337-0.707-0.409s-0.549-0.073-0.817-0.002zM24.841 25.041c-1.171 1.177-2.564 2.111-4.098 2.746s-3.179 0.96-4.84 0.956c-1.661 0.004-3.307-0.321-4.841-0.957s-2.928-1.57-4.1-2.747c-4.927-4.929-4.927-12.95 0-17.879 0.952-0.951 2.051-1.742 3.255-2.344-0.176 2.274 0.141 4.559 0.929 6.7s2.029 4.085 3.638 5.702c1.613 1.614 3.558 2.858 5.699 3.647s4.428 1.103 6.703 0.921c-0.604 1.202-1.396 2.3-2.345 3.254z">
      </path>
    </symbol>
    <symbol id="icon-pencil" viewBox="0 0 32 32">
      <path stroke-linejoin="round" stroke-linecap="round" stroke-miterlimit="4" stroke-width="2.6"
        d="M3.333 28.667l7.399-2.846c0.473-0.182 0.71-0.273 0.931-0.392 0.197-0.106 0.384-0.227 0.56-0.364 0.198-0.154 0.378-0.333 0.736-0.692l15.040-15.040c1.473-1.473 1.473-3.861 0-5.333s-3.861-1.473-5.333 0l-15.040 15.040c-0.359 0.359-0.538 0.538-0.692 0.736-0.137 0.176-0.259 0.364-0.364 0.561-0.119 0.221-0.21 0.458-0.392 0.931l-2.846 7.399zM3.333 28.667l2.744-7.135c0.196-0.511 0.295-0.766 0.463-0.883 0.147-0.102 0.329-0.141 0.505-0.107 0.201 0.038 0.395 0.232 0.782 0.619l3.012 3.012c0.387 0.387 0.58 0.58 0.619 0.782 0.034 0.176-0.005 0.358-0.107 0.505-0.117 0.168-0.372 0.267-0.883 0.463l-7.135 2.744z">
      </path>
    </symbol>
    <symbol id="icon-plus" viewBox="0 0 32 32">
      <path stroke-linejoin="round" stroke-linecap="round" stroke-miterlimit="4" stroke-width="3.5556"
        d="M16 6.667v18.667"></path>
      <path stroke-linejoin="round" stroke-linecap="round" stroke-miterlimit="4" stroke-width="3.5556"
        d="M6.667 16h18.667"></path>
    </symbol>
    <symbol id="icon-plus-circle" viewBox="0 0 32 32">
      <path stroke-linejoin="round" stroke-linecap="round" stroke-miterlimit="4" stroke-width="2.6667"
        d="M16 10.667v10.667M10.667 16h10.667M29.333 16c0 7.364-5.97 13.333-13.333 13.333s-13.333-5.97-13.333-13.333c0-7.364 5.97-13.333 13.333-13.333s13.333 5.97 13.333 13.333z">
      </path>
    </symbol>
    <symbol id="icon-smoll-arrow-left" viewBox="0 0 208 32">
      <path d="M26.863 24.894l-10.024-6.816 190.638-0.005v-5.333l-189.443 0.005 9.443-5.427-2.656-4.624-21.731 12.485 20.773 14.125 3-4.411z"></path>
    </symbol> 
    <symbol id="icon-right" viewBox="0 0 208 32">
      <path d="M180.613 5.918l10.024 6.816-190.637 0.005v5.333l189.443-0.005-9.443 5.427 2.656 4.624 21.731-12.485-20.773-14.125-3 4.411z"></path>
    </symbol>
    <symbol id="icon-star" viewBox="0 0 32 32">
      <path
        d="M24.741 32c-0.38 0-0.759-0.122-1.084-0.365l-7.656-5.739-7.656 5.739c-0.317 0.239-0.698 0.366-1.089 0.365s-0.771-0.132-1.087-0.373c-0.316-0.24-0.552-0.577-0.673-0.965s-0.124-0.805-0.005-1.194l2.856-9.633-7.588-5.589c-0.314-0.243-0.548-0.582-0.668-0.971s-0.119-0.807 0.001-1.196c0.121-0.388 0.356-0.726 0.671-0.966s0.695-0.372 1.085-0.374l9.398-0.015 2.992-9.394c0.123-0.387 0.36-0.724 0.677-0.962s0.697-0.367 1.087-0.367c0.39 0 0.771 0.128 1.087 0.367s0.553 0.575 0.677 0.962l2.941 9.394 9.446 0.015c0.391 0.002 0.771 0.133 1.086 0.374s0.55 0.58 0.671 0.968c0.121 0.388 0.121 0.807 0.002 1.196s-0.353 0.728-0.668 0.97l-7.588 5.589 2.855 9.633c0.119 0.389 0.117 0.806-0.004 1.194s-0.357 0.725-0.673 0.965c-0.317 0.243-0.699 0.373-1.092 0.373z">
      </path>
    </symbol>
    <symbol id="icon-sun" viewBox="0 0 32 32">
      <path
        d="M9.324 16c0 3.681 2.995 6.676 6.676 6.676s6.676-2.995 6.676-6.676c0-3.681-2.995-6.676-6.676-6.676s-6.676 2.995-6.676 6.676zM16 11.991c2.211 0 4.009 1.799 4.009 4.009s-1.799 4.009-4.009 4.009c-2.211 0-4.009-1.799-4.009-4.009s1.799-4.009 4.009-4.009zM14.664 25.333h2.667v4h-2.667v-4zM14.664 2.667h2.667v4h-2.667v-4zM2.664 14.667h4v2.667h-4v-2.667zM25.331 14.667h4v2.667h-4v-2.667zM5.625 24.484l2.827-2.829 1.887 1.885-2.827 2.829-1.887-1.885zM21.653 8.459l2.829-2.829 1.885 1.885-2.829 2.829-1.885-1.885zM8.456 10.345l-2.829-2.829 1.887-1.885 2.827 2.829-1.884 1.885zM26.368 24.485l-1.885 1.885-2.829-2.829 1.885-1.885 2.829 2.829z">
      </path>
    </symbol>
    <symbol id="icon-user-check-01" viewBox="0 0 32 32">
      <path stroke-linejoin="round" stroke-linecap="round" stroke-miterlimit="4" stroke-width="2.4"
        d="M21.333 24l2.667 2.667 5.333-5.333"></path>
      <path stroke-linejoin="round" stroke-linecap="round" stroke-miterlimit="4" stroke-width="2.4"
        d="M16 20.667h-6c-0.867 0-1.3 0-1.665 0.042-2.955 0.34-5.287 2.671-5.627 5.627-0.042 0.364-0.042 0.798-0.042 1.665v0">
      </path>
      <path stroke-linejoin="round" stroke-linecap="round" stroke-miterlimit="4" stroke-width="2.4"
        d="M13.333 16c3.314 0 6-2.686 6-6s-2.686-6-6-6c-3.314 0-6 2.686-6 6s2.686 6 6 6z"></path>
    </symbol>
    <symbol id="icon-x-close" viewBox="0 0 32 32">
      <path d="M23.733 10.304 22.229 8.8l-5.963 5.963L10.303 8.8l-1.504 1.504 5.963 5.963-5.963 5.963 1.504 1.504 5.963-5.963 5.963 5.963 1.504-1.504-5.963-5.963 5.963-5.963z"/>
    </symbol>
  </defs>
</svg>